Coordinates
version=1
nRows=26
nColumns=24
inDegrees=yes

Units are S.I. units (second, meters, Newtons, ...)
Angles are in degrees.

endheader
time	pelvis_tilt	pelvis_list	pelvis_rotation	pelvis_tx	pelvis_ty	pelvis_tz	hip_flexion_r	hip_adduction_r	hip_rotation_r	knee_angle_r	ankle_angle_r	subtalar_angle_r	mtp_angle_r	hip_flexion_l	hip_adduction_l	hip_rotation_l	knee_angle_l	ankle_angle_l	subtalar_angle_l	mtp_angle_l	lumbar_extension	lumbar_bending	lumbar_rotation
      5.80000000	     -2.20279585	      8.54520164	     -7.16560219	      1.84904823	      1.01929015	     -0.23466672	      9.68246154	    -13.25758268	     -3.53297888	    -62.69340488	    -11.95209722	      0.90155311	      0.00000000	     16.80021709	     10.62579111	     -6.15973655	    -16.00787486	      9.05689617	     -7.65988478	      0.00000000	     -8.39238297	    -10.82467505	      2.75137028
      5.80500000	     -2.05999965	      8.59023171	     -7.25659591	      1.85520384	      1.02007394	     -0.23486894	     10.33892944	    -13.29285504	     -3.42591172	    -63.44866106	    -10.71128790	      0.84557474	      0.00000000	     16.14041597	     10.80449609	     -5.93411229	    -15.71496626	      9.22158173	     -7.92892749	      0.00000000	     -8.50553152	    -10.84442569	      2.66442627
      5.81000000	     -1.91923911	      8.60308612	     -7.32698127	      1.86134786	      1.02089148	     -0.23507490	     10.97174650	    -13.29002924	     -3.35544464	    -64.12489600	     -9.30796776	      0.90057878	      0.00000000	     15.46718216	     10.95461736	     -5.68093417	    -15.40488303	      9.36812476	     -8.19910722	      0.00000000	     -8.61777371	    -10.82527569	      2.56648791
      5.81500000	     -1.76711021	      8.60755834	     -7.38585620	      1.86750453	      1.02176173	     -0.23526302	     11.57081349	    -13.27704157	     -3.31450051	    -64.72167798	     -7.78227876	      1.03850955	      0.00000000	     14.75665729	     11.10234515	     -5.36764543	    -15.05226685	      9.44210892	     -8.51131624	      0.00000000	     -8.73696665	    -10.80260056	      2.47011200
      5.82000000	     -1.62661014	      8.57096585	     -7.41630503	      1.87364927	      1.02262957	     -0.23549676	     12.15567275	    -13.22275300	     -3.31768160	    -65.24491034	     -6.18676291	      1.26906723	      0.00000000	     14.04935035	     11.21082753	     -5.04002504	    -14.70103127	      9.55522441	     -8.80010503	      0.00000000	     -8.84694253	    -10.72220071	      2.34391589
      5.82500000	     -1.51054081	      8.49151862	     -7.40936574	      1.87973424	      1.02351252	     -0.23572392	     12.73492508	    -13.11695403	     -3.37076524	    -65.68853436	     -4.54270119	      1.56008767	      0.00000000	     13.37015314	     11.26769717	     -4.72471949	    -14.36859016	      9.64847880	     -9.03789683	      0.00000000	     -8.94537902	    -10.59279706	      2.21677058
      5.83000000	     -1.38886857	      8.40838471	     -7.39657418	      1.88584266	      1.02439657	     -0.23598277	     13.29636063	    -13.01203548	     -3.44479776	    -66.06562466	     -2.92423291	      1.87292863	      0.00000000	     12.65944628	     11.32737299	     -4.34069070	    -13.99336395	      9.72442467	     -9.32799421	      0.00000000	     -9.04052385	    -10.45387725	      2.06964348
      5.83500000	     -1.29873798	      8.28049746	     -7.34396336	      1.89188832	      1.02527828	     -0.23624876	     13.86014834	    -12.85561316	     -3.57368216	    -66.36414094	     -1.33925373	      2.19752961	      0.00000000	     11.99250431	     11.32973900	     -4.00980580	    -13.65041211	      9.80080436	     -9.54692453	      0.00000000	     -9.11607000	    -10.25949464	      1.92188356
      5.84000000	     -1.19560454	      8.16277827	     -7.28326142	      1.89795207	      1.02615470	     -0.23654795	     14.40338242	    -12.71574091	     -3.72064272	    -66.60449937	      0.15901791	      2.49990357	      0.00000000	     11.28241534	     11.35074396	     -3.56709622	    -13.25506547	      9.84032260	     -9.84003060	      0.00000000	     -9.20002781	    -10.07613591	      1.74891377
      5.84500000	     -1.12358339	      8.00671315	     -7.19189611	      1.90397015	      1.02701996	     -0.23684708	     14.95240359	    -12.52907059	     -3.90968122	    -66.76976108	      1.57263483	      2.78366551	      0.00000000	     10.61505015	     11.31858832	     -3.19469871	    -12.88710712	      9.88274790	    -10.06073639	      0.00000000	     -9.25906674	     -9.84662787	      1.57929984
      5.85000000	     -1.05088934	      7.85184375	     -7.08532493	      1.90998199	      1.02786450	     -0.23717529	     15.49109936	    -12.34830114	     -4.12577463	    -66.87639708	      2.86932199	      3.02740120	      0.00000000	      9.93115506	     11.28903678	     -2.76451779	    -12.49135661	      9.90395039	    -10.32170734	      0.00000000	     -9.31784472	     -9.61208524	      1.39077301
      5.85500000	     -0.98907031	      7.68169090	     -6.96503186	      1.91597046	      1.02868452	     -0.23750610	     16.02622816	    -12.14680061	     -4.36187820	    -66.92208692	      4.05795082	      3.23550530	      0.00000000	      9.25443895	     11.23690633	     -2.33363986	    -12.08985736	      9.91685589	    -10.57315925	      0.00000000	     -9.36876401	     -9.36063271	      1.19572896
      5.86000000	     -0.92060388	      7.51096121	     -6.83250887	      1.92193986	      1.02947508	     -0.23786400	     16.54662969	    -11.94823339	     -4.61999947	    -66.91446781	      5.13080748	      3.39707684	      0.00000000	      8.55583523	     11.18481941	     -1.83494898	    -11.66293035	      9.91817921	    -10.86797579	      0.00000000	     -9.43041374	     -9.10631154	      0.98916131
      5.86500000	     -0.87576277	      7.32408642	     -6.68529145	      1.92789495	      1.03024404	     -0.23820112	     17.07075807	    -11.72443780	     -4.89346205	    -66.83947695	      6.12853247	      3.55816511	      0.00000000	      7.88745889	     11.10232550	     -1.41637170	    -11.24339503	      9.90141668	    -11.11232056	      0.00000000	     -9.46551834	     -8.83197904	      0.78046805
      5.87000000	     -0.83124322	      7.13313854	     -6.53117145	      1.93384510	      1.03096377	     -0.23856891	     17.58597135	    -11.49990392	     -5.18044662	    -66.71366871	      7.04328427	      3.70625037	      0.00000000	      7.20882232	     11.01436490	     -0.96452776	    -10.80432200	      9.88798652	    -11.39454268	      0.00000000	     -9.49951231	     -8.54615496	      0.55800566
      5.87500000	     -0.77472886	      6.95170329	     -6.36806843	      1.93975290	      1.03165856	     -0.23891642	     18.08043256	    -11.28217705	     -5.47718678	    -66.53388357	      7.89637015	      3.81789964	      0.00000000	      6.50558660	     10.93105182	     -0.43286540	    -10.34155912	      9.84318730	    -11.70283246	      0.00000000	     -9.55636340	     -8.28173478	      0.34705125
      5.88000000	     -0.73885361	      6.75751468	     -6.19800854	      1.94563974	      1.03231398	     -0.23925113	     18.57887995	    -11.04334175	     -5.77342638	    -66.29176790	      8.72371882	      3.96788391	      0.00000000	      5.83216991	     10.82295844	      0.01376446	     -9.88581511	      9.78816733	    -11.97829135	      0.00000000	     -9.59093198	     -7.99781294	      0.11981232
      5.88500000	     -0.69753137	      6.56890921	     -6.02608669	      1.95150935	      1.03291417	     -0.23958776	     19.06346969	    -10.81078790	     -6.07274005	    -65.99829887	      9.52023180	      4.11512627	      0.00000000	      5.14400218	     10.71641905	      0.50573240	     -9.41108103	      9.73018074	    -12.28760243	      0.00000000	     -9.63328392	     -7.71925377	     -0.10183494
      5.89000000	     -0.66696222	      6.37851144	     -5.85461453	      1.95737088	      1.03345702	     -0.23992845	     19.54746932	    -10.57242560	     -6.36413046	    -65.64852407	     10.29892690	      4.29800066	      0.00000000	      4.46864696	     10.60099880	      0.94183964	     -8.93003660	      9.67567960	    -12.58819698	      0.00000000	     -9.66099203	     -7.43136410	     -0.34280772
      5.89500000	     -0.62378350	      6.19756837	     -5.67994610	      1.96317402	      1.03396227	     -0.24023517	     20.00736948	    -10.33953196	     -6.65549125	    -65.23956201	     11.08199285	      4.47216251	      0.00000000	      3.77443234	     10.48678141	      1.45553552	     -8.43582518	      9.59548359	    -12.91340824	      0.00000000	     -9.71401620	     -7.16588938	     -0.55083895
      5.90000000	     -0.59302099	      6.01558628	     -5.50287067	      1.96898130	      1.03440982	     -0.24055756	     20.46401725	    -10.10669889	     -6.94668070	    -64.76977955	     11.85440164	      4.68645896	      0.00000000	      3.09723617	     10.36513342	      1.89809449	     -7.94026902	      9.51705899	    -13.21830714	      0.00000000	     -9.75041127	     -6.88847888	     -0.79344067
      5.90500000	     -0.56107216	      5.83470592	     -5.32625072	      1.97474895	      1.03481027	     -0.24084522	     20.90394947	     -9.86965324	     -7.23380280	    -64.23582827	     12.62978628	      4.91439360	      0.00000000	      2.41919474	     10.23516354	      2.35204636	     -7.44022585	      9.43261802	    -13.52778859	      0.00000000	     -9.79510506	     -6.61780331	     -1.02508906
      5.91000000	     -0.53410537	      5.65936975	     -5.15601433	      1.98049716	      1.03514368	     -0.24112354	     21.33819977	     -9.63325796	     -7.50576187	    -63.64464162	     13.38509991	      5.15567079	      0.00000000	      1.75076346	     10.10391638	      2.76727826	     -6.93974679	      9.36468566	    -13.81496338	      0.00000000	     -9.83260538	     -6.34915356	     -1.25848114
      5.91500000	     -0.49966453	      5.48870884	     -4.98209168	      1.98620105	      1.03544850	     -0.24136786	     21.74550274	     -9.39863643	     -7.78010376	    -62.98424109	     14.13020146	      5.38885233	      0.00000000	      1.07636886	      9.96771104	      3.20995868	     -6.43893893	      9.27058700	    -14.10519362	      0.00000000	     -9.88937673	     -6.09435655	     -1.46738046
      5.92000000	     -0.47370110	      5.32272065	     -4.81714059	      1.99189883	      1.03567718	     -0.24159910	     22.15107348	     -9.16550333	     -8.04120088	    -62.27107245	     14.83409941	      5.63300622	      0.00000000	      0.41410488	      9.82978859	      3.60483677	     -5.93618565	      9.20532085	    -14.37092441	      0.00000000	     -9.93287654	     -5.83900052	     -1.69417475
      5.92500000	     -0.44404874	      5.16160370	     -4.65091369	      1.99756428	      1.03587406	     -0.24180138	     22.53377338	     -8.93353819	     -8.29774634	    -61.49241075	     15.50816010	      5.86733205	      0.00000000	     -0.24611083	      9.68850295	      4.00049802	     -5.43989458	      9.11911469	    -14.63193597	      0.00000000	     -9.98820726	     -5.59539036	     -1.90091330
